<svg height="512" viewBox="0 0 52 58" width="512" xmlns="http://www.w3.org/2000/svg"><g id="Page-1" fill="none" fill-rule="evenodd"><g id="026---Page-Folded-Book" fill-rule="nonzero"><path id="Shape" d="m0 53v-48c0-2.76142375 2.23857625-5 5-5s5 2.23857625 5 5v48z" fill="#f3d55b"/><path id="Shape" d="m10 5h40c1.1045695 0 2 .8954305 2 2v44c0 1.1045695-.8954305 2-2 2h-40z" fill="#f0c419"/><path id="Shape" d="m10 53c0-2.7614237-2.23857625-5-5-5s-5 2.2385763-5 5 2.23857625 5 5 5h39c1.1045695 0 2-.8954305 2-2v-3z" fill="#f29c1f"/><rect id="Rectangle-path" fill="#2c3e50" height="21" rx="1" width="8" x="15" y="26"/><rect id="Rectangle-path" fill="#2c3e50" height="21" rx="1" width="8" x="27" y="26"/><rect id="Rectangle-path" fill="#2c3e50" height="21" rx="1" width="8" x="39" y="26"/><rect id="Rectangle-path" fill="#3f5c6c" height="12" rx="1" width="15" x="32" y="10"/><g fill="#ecf0f1"><path id="Shape" d="m28 23h-13c-.5522847 0-1-.4477153-1-1s.4477153-1 1-1h13c.5522847 0 1 .4477153 1 1s-.4477153 1-1 1z"/><path id="Shape" d="m28 19h-13c-.5522847 0-1-.4477153-1-1s.4477153-1 1-1h13c.5522847 0 1 .4477153 1 1s-.4477153 1-1 1z"/><path id="Shape" d="m28 15h-13c-.5522847 0-1-.4477153-1-1s.4477153-1 1-1h13c.5522847 0 1 .4477153 1 1s-.4477153 1-1 1z"/><path id="Shape" d="m28 11h-13c-.5522847 0-1-.4477153-1-1 0-.55228475.4477153-1 1-1h13c.5522847 0 1 .44771525 1 1 0 .5522847-.4477153 1-1 1z"/></g></g></g></svg>