<svg height="512" viewBox="0 0 58 59" width="512" xmlns="http://www.w3.org/2000/svg"><g id="Page-1" fill="none" fill-rule="evenodd"><g id="042---Science-Book" fill-rule="nonzero"><path id="Shape" d="m52 59c-.5522847 0-1-.4477153-1-1v-5c0-.5522847.4477153-1 1-1s1 .4477153 1 1v5c0 .5522847-.4477153 1-1 1z" fill="#3f5c6c"/><path id="Shape" d="m42 36v19c0 1.6568542-1.3431458 3-3 3h-33c-3.3137085 0-6-2.6862915-6-6v-5.406z" fill="#f9eab0"/><path id="Shape" d="m39 0h-33c-3.3137085 0-6 2.6862915-6 6v46c0-3.3137085 2.6862915-6 6-6h33c1.6568542 0 3-1.3431458 3-3v-40c0-1.65685425-1.3431458-3-3-3z" fill="#ff5364"/><path id="Shape" d="m42 51h-36c-.55228475 0-1-.4477153-1-1s.44771525-1 1-1h36c.5522847 0 1 .4477153 1 1s-.4477153 1-1 1z" fill="#fac176"/><path id="Shape" d="m42 55h-36c-.55228475 0-1-.4477153-1-1s.44771525-1 1-1h36c.5522847 0 1 .4477153 1 1s-.4477153 1-1 1z" fill="#fac176"/><rect id="Rectangle-path" fill="#ecf0f1" height="5" rx="1" width="26" x="11" y="36"/><path id="Shape" d="m52 0c3.3137085 0 6 2.6862915 6 6v2h-12v-2c0-3.3137085 2.6862915-6 6-6z" fill="#3f5c6c"/><path id="Shape" d="m24 33c-5.33 0-9.5-6.589-9.5-15s4.17-15 9.5-15 9.505 6.589 9.505 15-4.175 15-9.505 15zm0-28c-4.068 0-7.5 5.953-7.5 13s3.432 13 7.5 13 7.505-5.953 7.505-13-3.437-13-7.505-13z" fill="#9fc9d3"/><path id="Shape" d="m33.028 27.217c-3.321 0-7.974-1.68-12.028-4.021-6.3-3.635-11.938-9.321-9.991-12.7s9.691-1.328 15.991 2.304 11.938 9.321 9.991 12.7c-.691 1.2-2.125 1.717-3.963 1.717zm-18.073-16.44c-1.168 0-1.946.26-2.213.723-.816 1.412 2.386 6 9.258 9.964s12.444 4.448 13.258 3.036-2.386-6-9.258-9.964c-4.619-2.667-8.651-3.759-11.045-3.759z" fill="#285680"/><path id="Shape" d="m14.972 27.217c-1.839 0-3.268-.514-3.963-1.717-1.947-3.375 3.691-9.061 9.991-12.7s14.042-5.681 15.991-2.3-3.691 9.061-9.991 12.7c-4.054 2.336-8.708 4.017-12.028 4.017zm18.073-16.44c-2.394 0-6.425 1.091-11.045 3.759-6.872 3.964-10.074 8.552-9.258 9.964s6.385.934 13.258-3.036 10.074-8.552 9.258-9.964c-.267-.463-1.046-.723-2.213-.723z" fill="#3b97d3"/><circle id="Oval" cx="24" cy="18" fill="#ecf0f1" r="2"/><path id="Shape" d="m46.092 43.2 5 10.834c.1634344.3541981.517914.5810298.908.5810298s.7445656-.2268317.908-.5810298l5-10.834c.0610025-.1315907.0924067-.2749577.092-.42l.0000039-34.78h-12.0000078l.0000039 34.78c-.0004067.1450423.0309975.2884093.092.42z" fill="#35495e"/><path id="Shape" d="m50 8h4v16c0 1.1045695-.8954305 2-2 2s-2-.8954305-2-2z" fill="#3f5c6c"/><path id="Shape" d="m6 0v46c-3.3137085 0-6 2.6862915-6 6v-46c0-3.3137085 2.6862915-6 6-6z" fill="#df4d60"/><path id="Shape" d="m57.98 43 .013.02-5.085 11.014c-.1634344.3541981-.517914.5810298-.908.5810298s-.7445656-.2268317-.908-.5810298l-5.085-11.014.013-.02z" fill="#2c3e50"/></g></g></svg>