<svg height="512" viewBox="0 0 48 58" width="512" xmlns="http://www.w3.org/2000/svg"><g id="Page-1" fill="none" fill-rule="evenodd"><g id="052---Adventure-Novel" fill-rule="nonzero" transform="translate(-1)"><path id="Shape" d="m47 0h-41c-2.76142375 0-5 2.23857625-5 5v44c-.00311634.1635861.00356227.327212.02.49.32491085 2.607865 2.56231031 4.5521177 5.19 4.51h40.79c1.1032019-.0032948 1.9967052-.8967981 2-2v-50c-.0032948-1.10320187-.8967981-1.9967052-2-2z" fill="#f9eab0"/><path id="Shape" d="m49 2v39c0 1.1-.9 3-2 3h-41c-2.76142375 0-5 2.2385763-5 5v-44c0-2.76142375 2.23857625-5 5-5h41c1.1032019.0032948 1.9967052.89679813 2 2z" fill="#f0c419"/><g fill="#f29c1f"><path id="Shape" d="m8 0v2c0 .55228475-.44771525 1-1 1s-1-.44771525-1-1v-2z"/><path id="Shape" d="m7 9c-.55228475 0-1-.44771525-1-1v-2c0-.55228475.44771525-1 1-1s1 .44771525 1 1v2c0 .55228475-.44771525 1-1 1z"/><path id="Shape" d="m49 41v11c-.0032948 1.1032019-.8967981 1.9967052-2 2h-1c-1.66 0-3-2.24-3-5s1.34-5 3-5h1c1.1 0 2-1.9 2-3z"/><path id="Shape" d="m7 15c-.55228475 0-1-.4477153-1-1v-2c0-.5522847.44771525-1 1-1s1 .4477153 1 1v2c0 .5522847-.44771525 1-1 1z"/><path id="Shape" d="m7 21c-.55228475 0-1-.4477153-1-1v-2c0-.5522847.44771525-1 1-1s1 .4477153 1 1v2c0 .5522847-.44771525 1-1 1z"/><path id="Shape" d="m7 27c-.55228475 0-1-.4477153-1-1v-2c0-.5522847.44771525-1 1-1s1 .4477153 1 1v2c0 .5522847-.44771525 1-1 1z"/><path id="Shape" d="m7 33c-.55228475 0-1-.4477153-1-1v-2c0-.5522847.44771525-1 1-1s1 .4477153 1 1v2c0 .5522847-.44771525 1-1 1z"/><path id="Shape" d="m7 39c-.55228475 0-1-.4477153-1-1v-2c0-.5522847.44771525-1 1-1s1 .4477153 1 1v2c0 .5522847-.44771525 1-1 1z"/><path id="Shape" d="m8 42v2h-2v-2c0-.5522847.44771525-1 1-1s1 .4477153 1 1z"/></g><path id="Shape" d="m46 54h-39.79c-2.62768969.0421177-4.86508915-1.902135-5.19-4.51-.01643773-.162788-.02311634-.3264139-.02-.49 0-2.7614237 2.23857625-5 5-5h40c-1.66 0-3 2.24-3 5s1.34 5 3 5z" fill="#f9eab0"/><path id="Shape" d="m11 49h10v8c.0000756.3602062-.193577.692619-.5069584.8702156-.3133815.1775966-.6980603.1729304-1.0070416-.0122156l-2.972-1.783c-.3164363-.1896131-.7115637-.1896131-1.028 0l-2.972 1.783c-.3089813.185146-.6936601.1898122-1.0070416.0122156-.3133814-.1775966-.507034-.5100094-.5069584-.8702156z" fill="#ff5364"/><path id="Shape" d="m25 50h-17c-.55228475 0-1-.4477153-1-1s.44771525-1 1-1h17c.5522847 0 1 .4477153 1 1s-.4477153 1-1 1z" fill="#fac176"/><path id="Shape" d="m26.029 28.213 17.485-10.608c.3012451-.1805102.4857224-.5058128.486-.857v-9.748c0-.55228475-.4477153-1-1-1h-9.748c-.3511872.00027757-.6764898.18475492-.857.486l-10.608 17.485z" fill="#95a5a5"/><rect id="Rectangle-path" fill="#a56a43" height="6" rx="2" transform="matrix(.707 .707 -.707 .707 26.331 -7.143)" width="16" x="13.788" y="25.213"/><path id="Shape" d="m13.4825702 29.0169797h6v7c0 1.1045695-.8954305 2-2 2h-2c-1.1045695 0-2-.8954305-2-2z" fill="#805333" transform="matrix(.707 .707 -.707 .707 28.528 -1.838)"/><path id="Shape" d="m27.444 23.557c-.4043959-.0000863-.7689341-.2437275-.923678-.6173454-.1547439-.373618-.0692299-.8036603.216678-1.0896546l11.313-11.315c.3923789-.3789722 1.0160848-.3735524 1.4018186.0121814s.3911536 1.0094397.0121814 1.4018186l-11.313 11.315c-.1874927.1875494-.4418052.2929434-.707.293z" fill="#7f8c8d"/></g></g></svg>