<svg height="512" viewBox="0 0 48 58" width="512" xmlns="http://www.w3.org/2000/svg"><g id="Page-1" fill="none" fill-rule="evenodd"><g id="054---Fantasy-Novel" fill-rule="nonzero" transform="translate(-1)"><path id="Shape" d="m47 0h-41c-2.76142375 0-5 2.23857625-5 5v44c-.00311634.1635861.00356227.327212.02.49.32491085 2.607865 2.56231031 4.5521177 5.19 4.51h40.79c1.1032019-.0032948 1.9967052-.8967981 2-2v-50c-.0032948-1.10320187-.8967981-1.9967052-2-2z" fill="#f9eab0"/><path id="Shape" d="m49 2v39c0 1.1-.9 3-2 3h-41c-2.76142375 0-5 2.2385763-5 5v-44c0-2.76142375 2.23857625-5 5-5h41c1.1032019.0032948 1.9967052.89679813 2 2z" fill="#3b97d3"/><g fill="#2980ba"><path id="Shape" d="m8 0v2c0 .55228475-.44771525 1-1 1s-1-.44771525-1-1v-2z"/><path id="Shape" d="m7 9c-.55228475 0-1-.44771525-1-1v-2c0-.55228475.44771525-1 1-1s1 .44771525 1 1v2c0 .55228475-.44771525 1-1 1z"/><path id="Shape" d="m49 41v11c-.0032948 1.1032019-.8967981 1.9967052-2 2h-1c-1.66 0-3-2.24-3-5s1.34-5 3-5h1c1.1 0 2-1.9 2-3z"/><path id="Shape" d="m7 15c-.55228475 0-1-.4477153-1-1v-2c0-.5522847.44771525-1 1-1s1 .4477153 1 1v2c0 .5522847-.44771525 1-1 1z"/><path id="Shape" d="m7 21c-.55228475 0-1-.4477153-1-1v-2c0-.5522847.44771525-1 1-1s1 .4477153 1 1v2c0 .5522847-.44771525 1-1 1z"/><path id="Shape" d="m7 27c-.55228475 0-1-.4477153-1-1v-2c0-.5522847.44771525-1 1-1s1 .4477153 1 1v2c0 .5522847-.44771525 1-1 1z"/><path id="Shape" d="m7 33c-.55228475 0-1-.4477153-1-1v-2c0-.5522847.44771525-1 1-1s1 .4477153 1 1v2c0 .5522847-.44771525 1-1 1z"/><path id="Shape" d="m7 39c-.55228475 0-1-.4477153-1-1v-2c0-.5522847.44771525-1 1-1s1 .4477153 1 1v2c0 .5522847-.44771525 1-1 1z"/><path id="Shape" d="m8 42v2h-2v-2c0-.5522847.44771525-1 1-1s1 .4477153 1 1z"/></g><path id="Shape" d="m46 54h-39.79c-2.62768969.0421177-4.86508915-1.902135-5.19-4.51-.01643773-.162788-.02311634-.3264139-.02-.49 0-2.7614237 2.23857625-5 5-5h40c-1.66 0-3 2.24-3 5s1.34 5 3 5z" fill="#f9eab0"/><path id="Shape" d="m11 49h10v8c.0000756.3602062-.193577.692619-.5069584.8702156-.3133815.1775966-.6980603.1729304-1.0070416-.0122156l-2.972-1.783c-.3164363-.1896131-.7115637-.1896131-1.028 0l-2.972 1.783c-.3089813.185146-.6936601.1898122-1.0070416.0122156-.3133814-.1775966-.507034-.5100094-.5069584-.8702156z" fill="#ff5364"/><path id="Shape" d="m25 50h-17c-.55228475 0-1-.4477153-1-1s.44771525-1 1-1h17c.5522847 0 1 .4477153 1 1s-.4477153 1-1 1z" fill="#fac176"/><path id="Shape" d="m44.88 20.6c-.1822135.3615105-.5552231.5868704-.96.58l-5.81-.08c-.3511143-.0006429-.6801149.1713347-.88.46l-3.35 4.73c-.2357658.3330827-.6400634.5035961-1.0431501.4399508-.4030867-.0636452-.7351793-.3504308-.8568499-.7399508l-1.19-3.83-.53-1.71c-.1076696-.337713-.372287-.6023304-.71-.71l-1.71-.53-3.83-1.19c-.38952-.1216706-.6763056-.4537632-.7399508-.8568499-.0636453-.4030867.1068681-.8073843.4399508-1.0431501l4.73-3.35c.2909199-.2024807.4630764-.5355661.46-.89l-.08-5.8c-.0068704-.40477695.2184895-.77778651.58-.96.3631654-.18716908.8010396-.15229414 1.13.09l4.65 3.48c.2805765.21180994.6489136.26818807.98.15l5.5-1.86c.3863622-.12892677.812407-.02842423 1.1004156.25958436.2880086.2880086.3885112.71405339.2595844 1.10041564l-1.86 5.49c-.1188361.3343072-.0625341.7059004.15.99l3.48 4.65c.2422941.3289604.2771691.7668346.09 1.13z" fill="#f0c419"/><path id="Shape" d="m30.79 22.16-14.78 15.92c-.7210711.7758127-1.8083547 1.0957406-2.834693.8340946s-1.8277556-1.0630633-2.0894016-2.0894016.0582819-2.1136219.8340946-2.834693l15.92-14.78 1.71.53c.337713.1076696.6023304.372287.71.71z" fill="#805333"/><path id="Shape" d="m25 10c-.2651948-.00005664-.5195073-.10545063-.707-.293l-3-3c-.3789722-.39237889-.3735524-1.01608478.0121814-1.40181858.3857338-.38573379 1.0094397-.39115363 1.4018186-.01218142l3 3c.2859079.28599425.3714219.71603662.216678 1.08965456s-.5192821.61725909-.923678.61734544z" fill="#f3d55b"/><path id="Shape" d="m20 15c-.0822423-.0001749-.1641648-.0102473-.244-.03l-4-1c-.5320593-.1373346-.8536288-.6782442-.7200974-1.2112708.1335314-.5330265.6721308-.8584506 1.2060974-.7287292l4 1c.4895717.1226969.8109744.5909795.7494367 1.0919267-.0615377.5009473-.4867242.8775169-.9914367.8780733z" fill="#f3d55b"/><path id="Shape" d="m37 35c-.4585975-.0005854-.8580197-.3130332-.969-.758l-1-4c-.0959435-.3498693.0051249-.72426.2641012-.9783171.2589762-.2540571.635236-.3479281.9832013-.2452935.3479652.1026346.6130526.385675.6926975.7396106l1 4c.1335558.5353845-.1917847 1.0777678-.727 1.212-.0798352.0197527-.1617577.0298251-.244.03z" fill="#f3d55b"/><path id="Shape" d="m44 29c-.2651948-.0000566-.5195073-.1054506-.707-.293l-3-3c-.3789722-.3923789-.3735524-1.0160848.0121814-1.4018186s1.0094397-.3911536 1.4018186-.0121814l3 3c.2859079.2859943.3714219.7160366.216678 1.0896546-.1547439.3736179-.5192821.6172591-.923678.6173454z" fill="#f3d55b"/></g></g></svg>