<svg height="512" viewBox="0 0 48 58" width="512" xmlns="http://www.w3.org/2000/svg"><g id="Page-1" fill="none" fill-rule="evenodd"><g id="058---Cooking-Book" fill-rule="nonzero" transform="translate(-1)"><path id="Shape" d="m47 0h-41c-2.76142375 0-5 2.23857625-5 5v44c-.00311634.1635861.00356227.327212.02.49.32491085 2.607865 2.56231031 4.5521177 5.19 4.51h40.79c1.1032019-.0032948 1.9967052-.8967981 2-2v-50c-.0032948-1.10320187-.8967981-1.9967052-2-2z" fill="#f9eab0"/><path id="Shape" d="m49 2v39c0 1.1-.9 3-2 3h-41c-2.76142375 0-5 2.2385763-5 5v-44c0-2.76142375 2.23857625-5 5-5h41c1.1032019.0032948 1.9967052.89679813 2 2z" fill="#67b9cc"/><path id="Shape" d="m24 9.3v-2.3c0-1.65685425 1.3431458-3 3-3s3 1.34314575 3 3v2.3z" fill="#35495e"/><path id="Shape" d="m8 0v2c0 .55228475-.44771525 1-1 1s-1-.44771525-1-1v-2z" fill="#2fa8cc"/><path id="Shape" d="m7 9c-.55228475 0-1-.44771525-1-1v-2c0-.55228475.44771525-1 1-1s1 .44771525 1 1v2c0 .55228475-.44771525 1-1 1z" fill="#2fa8cc"/><path id="Shape" d="m39.47 16.08c-2.0131215-3.5362731-5.4736453-6.0138181-9.47-6.78-1.98-.4-4.02-.4-6 0-6.29 1.28-11 6.48-11 12.7h18z" fill="#3f5c6c"/><g fill="#2fa8cc"><path id="Shape" d="m49 41v11c-.0032948 1.1032019-.8967981 1.9967052-2 2h-1c-1.66 0-3-2.24-3-5s1.34-5 3-5h1c1.1 0 2-1.9 2-3z"/><path id="Shape" d="m7 15c-.55228475 0-1-.4477153-1-1v-2c0-.5522847.44771525-1 1-1s1 .4477153 1 1v2c0 .5522847-.44771525 1-1 1z"/><path id="Shape" d="m7 21c-.55228475 0-1-.4477153-1-1v-2c0-.5522847.44771525-1 1-1s1 .4477153 1 1v2c0 .5522847-.44771525 1-1 1z"/><path id="Shape" d="m7 27c-.55228475 0-1-.4477153-1-1v-2c0-.5522847.44771525-1 1-1s1 .4477153 1 1v2c0 .5522847-.44771525 1-1 1z"/><path id="Shape" d="m7 33c-.55228475 0-1-.4477153-1-1v-2c0-.5522847.44771525-1 1-1s1 .4477153 1 1v2c0 .5522847-.44771525 1-1 1z"/><path id="Shape" d="m7 39c-.55228475 0-1-.4477153-1-1v-2c0-.5522847.44771525-1 1-1s1 .4477153 1 1v2c0 .5522847-.44771525 1-1 1z"/><path id="Shape" d="m8 42v2h-2v-2c0-.5522847.44771525-1 1-1s1 .4477153 1 1z"/></g><path id="Shape" d="m46 54h-39.79c-2.62768969.0421177-4.86508915-1.902135-5.19-4.51-.01643773-.162788-.02311634-.3264139-.02-.49 0-2.7614237 2.23857625-5 5-5h40c-1.66 0-3 2.24-3 5s1.34 5 3 5z" fill="#f9eab0"/><path id="Shape" d="m11 49h10v8c.0000756.3602062-.193577.692619-.5069584.8702156-.3133815.1775966-.6980603.1729304-1.0070416-.0122156l-2.972-1.783c-.3164363-.1896131-.7115637-.1896131-1.028 0l-2.972 1.783c-.3089813.185146-.6936601.1898122-1.0070416.0122156-.3133814-.1775966-.507034-.5100094-.5069584-.8702156z" fill="#ff5364"/><path id="Shape" d="m25 50h-17c-.55228475 0-1-.4477153-1-1s.44771525-1 1-1h17c.5522847 0 1 .4477153 1 1s-.4477153 1-1 1z" fill="#fac176"/><path id="Shape" d="m29 27h-16c-1.1032019-.0032948-1.9967052-.8967981-2-2v-1c.0032948-1.1032019.8967981-1.9967052 2-2h15.67z" fill="#2c3e50"/><path id="Shape" d="m18.029 19.03c-.167512.0002694-.3323422-.0420565-.479-.123-.2330645-.1268358-.406165-.3410997-.4811879-.5956148-.0750229-.2545152-.0458167-.5284126.0811879-.7613852 1.3275788-2.3612523 3.50208-4.1304471 6.084-4.95.3394023-.1127173.7131569-.0358034.9804741.201769s.3875852.5997103.3155001.95c-.0720852.3502897-.3255719.6355137-.6649742.748231-2.0951683.6722282-3.863498 2.1031558-4.958 4.012-.1760806.3200776-.512687.5186677-.878.518z" fill="#547580"/><path id="Shape" d="m39.953 29.613c-2.563776 1.6024015-5.7295416 1.9132059-8.556.84-.3033472-.1431887-.6578777-.1270907-.947.043l-14.95 9.104c-1.4359403.8284271-3.2715729.3359403-4.1-1.1s-.3359403-3.2715729 1.1-4.1l14.973-9.116c.2703301-.17002.4445479-.4576647.47-.776.4744744-2.9962846 2.3290557-5.595587 5.008-7.019 4.3-2.485 9.359-1.789 11.294 1.562s.012 8.077-4.292 10.562z" fill="#fac176"/></g></g></svg>