<svg height="512" viewBox="0 0 48 58" width="512" xmlns="http://www.w3.org/2000/svg"><g id="Page-1" fill="none" fill-rule="evenodd"><g id="068---Web-Book" fill-rule="nonzero" transform="translate(-1)"><path id="Shape" d="m47 0h-41c-2.76142375 0-5 2.23857625-5 5v44c-.00311634.1635861.00356227.327212.02.49.32491085 2.607865 2.56231031 4.5521177 5.19 4.51h40.79c1.1032019-.0032948 1.9967052-.8967981 2-2v-50c-.0032948-1.10320187-.8967981-1.9967052-2-2z" fill="#f9eab0"/><path id="Shape" d="m49 2v39c0 1.1-.9 3-2 3h-41c-2.76142375 0-5 2.2385763-5 5v-44c0-2.76142375 2.23857625-5 5-5h41c1.1032019.0032948 1.9967052.89679813 2 2z" fill="#955ba5"/><g fill="#894b9d"><path id="Shape" d="m8 0v2c0 .55228475-.44771525 1-1 1s-1-.44771525-1-1v-2z"/><path id="Shape" d="m7 9c-.55228475 0-1-.44771525-1-1v-2c0-.55228475.44771525-1 1-1s1 .44771525 1 1v2c0 .55228475-.44771525 1-1 1z"/><path id="Shape" d="m49 41v11c-.0032948 1.1032019-.8967981 1.9967052-2 2h-1c-1.66 0-3-2.24-3-5s1.34-5 3-5h1c1.1 0 2-1.9 2-3z"/><path id="Shape" d="m7 15c-.55228475 0-1-.4477153-1-1v-2c0-.5522847.44771525-1 1-1s1 .4477153 1 1v2c0 .5522847-.44771525 1-1 1z"/><path id="Shape" d="m7 21c-.55228475 0-1-.4477153-1-1v-2c0-.5522847.44771525-1 1-1s1 .4477153 1 1v2c0 .5522847-.44771525 1-1 1z"/><path id="Shape" d="m7 27c-.55228475 0-1-.4477153-1-1v-2c0-.5522847.44771525-1 1-1s1 .4477153 1 1v2c0 .5522847-.44771525 1-1 1z"/><path id="Shape" d="m7 33c-.55228475 0-1-.4477153-1-1v-2c0-.5522847.44771525-1 1-1s1 .4477153 1 1v2c0 .5522847-.44771525 1-1 1z"/><path id="Shape" d="m7 39c-.55228475 0-1-.4477153-1-1v-2c0-.5522847.44771525-1 1-1s1 .4477153 1 1v2c0 .5522847-.44771525 1-1 1z"/><path id="Shape" d="m8 42v2h-2v-2c0-.5522847.44771525-1 1-1s1 .4477153 1 1z"/></g><path id="Shape" d="m46 54h-39.79c-2.62768969.0421177-4.86508915-1.902135-5.19-4.51-.01643773-.162788-.02311634-.3264139-.02-.49 0-2.7614237 2.23857625-5 5-5h40c-1.66 0-3 2.24-3 5s1.34 5 3 5z" fill="#f9eab0"/><path id="Shape" d="m11 49h10v8c.0000756.3602062-.193577.692619-.5069584.8702156-.3133815.1775966-.6980603.1729304-1.0070416-.0122156l-2.972-1.783c-.3164363-.1896131-.7115637-.1896131-1.028 0l-2.972 1.783c-.3089813.185146-.6936601.1898122-1.0070416.0122156-.3133814-.1775966-.507034-.5100094-.5069584-.8702156z" fill="#ff5364"/><path id="Shape" d="m25 50h-17c-.55228475 0-1-.4477153-1-1s.44771525-1 1-1h17c.5522847 0 1 .4477153 1 1s-.4477153 1-1 1z" fill="#fac176"/><circle id="Oval" cx="28" cy="22" fill="#67b9cc" r="17"/><path id="Shape" d="m44.97 23c.02-.33.03-.67.03-1s-.01-.67-.03-1h-6.99c-.0558443-2.2543033-.3986025-4.4923129-1.02-6.66 1.7755276-.2659066 3.522871-.694374 5.22-1.28.0739857-.0284944.1444487-.0654036.21-.11-.364671-.5812216-.7654587-1.1389845-1.2-1.67-1.592837.5224686-3.2294262.9006579-4.89 1.13-1.508-3.836-4.395-7.41-8.3-7.41-3.969 0-6.818 3.64-8.3 7.41-1.6605738-.2293421-3.297163-.6075314-4.89-1.13-.4345413.5310155-.835329 1.0887784-1.2 1.67.0655513.0445964.1360143.0815056.21.11 1.697129.585626 3.4444724 1.0140934 5.22 1.28-.6213975 2.1676871-.9641557 4.4056967-1.02 6.66h-6.99c-.02.33-.03.67-.03 1s.01.67.03 1h6.99c.0558443 2.2543033.3986025 4.4923129 1.02 6.66-1.7755276.2659066-3.522871.694374-5.22 1.28-.0739857.0284944-.1444487.0654036-.21.11.364671.5812216.7654587 1.1389845 1.2 1.67 1.592837-.5224686 3.2294262-.9006579 4.89-1.13 1.475 3.752 4.32 7.41 8.3 7.41s6.818-3.64 8.3-7.41c1.6605738.2293421 3.297163.6075314 4.89 1.13.4345413-.5310155.835329-1.0887784 1.2-1.67-.0655513-.0445964-.1360143-.0815056-.21-.11-1.697129-.585626-3.4444724-1.0140934-5.22-1.28.6213975-2.1676871.9641557-4.4056967 1.02-6.66zm-17.97 13.87c-2.08-.5-3.93-2.57-5.21-5.55 1.64-.17 3.4-.28 5.21-.3zm0-7.85c-1.9817098.0213948-3.9610008.1448919-5.93.37v-.01c-.6267177-2.0717797-.9797127-4.2166447-1.05-6.38h6.98zm0-8.02h-6.98c.0702873-2.1633553.4232823-4.3082203 1.05-6.38v-.01c1.9689992.2251081 3.9482902.3486052 5.93.37zm0-8.02c-1.81-.02-3.57-.13-5.21-.3 1.28-2.98 3.13-5.05 5.21-5.55zm2-5.85c2.08.5 3.93 2.57 5.21 5.55-1.64.17-3.4.28-5.21.3zm0 29.74v-5.85c1.81.02 3.57.13 5.21.3-1.28 2.98-3.13 5.05-5.21 5.55zm5.93-7.49v.01c-1.9689992-.2251081-3.9482902-.3486052-5.93-.37v-6.02h6.98c-.0702873 2.1633553-.4232823 4.3082203-1.05 6.38zm-5.93-8.38v-6.02c1.9817098-.0213948 3.9610008-.1448919 5.93-.37v.01c.6267177 2.0717797.9797127 4.2166447 1.05 6.38z" fill="#2fa8cc"/></g></g></svg>