<svg height="512" viewBox="0 0 48 58" width="512" xmlns="http://www.w3.org/2000/svg"><g id="Page-1" fill="none" fill-rule="evenodd"><g id="070---Art-Book" fill-rule="nonzero" transform="translate(-1)"><path id="Shape" d="m47 0h-41c-2.76142375 0-5 2.23857625-5 5v44c-.00311634.1635861.00356227.327212.02.49.32491085 2.607865 2.56231031 4.5521177 5.19 4.51h40.79c1.1032019-.0032948 1.9967052-.8967981 2-2v-50c-.0032948-1.10320187-.8967981-1.9967052-2-2z" fill="#f9eab0"/><path id="Shape" d="m49 2v39c0 1.1-.9 3-2 3h-41c-2.76142375 0-5 2.2385763-5 5v-44c0-2.76142375 2.23857625-5 5-5h41c1.1032019.0032948 1.9967052.89679813 2 2z" fill="#35495e"/><g fill="#2c3e50"><path id="Shape" d="m8 0v2c0 .55228475-.44771525 1-1 1s-1-.44771525-1-1v-2z"/><path id="Shape" d="m7 9c-.55228475 0-1-.44771525-1-1v-2c0-.55228475.44771525-1 1-1s1 .44771525 1 1v2c0 .55228475-.44771525 1-1 1z"/><path id="Shape" d="m49 41v11c-.0032948 1.1032019-.8967981 1.9967052-2 2h-1c-1.66 0-3-2.24-3-5s1.34-5 3-5h1c1.1 0 2-1.9 2-3z"/><path id="Shape" d="m7 15c-.55228475 0-1-.4477153-1-1v-2c0-.5522847.44771525-1 1-1s1 .4477153 1 1v2c0 .5522847-.44771525 1-1 1z"/><path id="Shape" d="m7 21c-.55228475 0-1-.4477153-1-1v-2c0-.5522847.44771525-1 1-1s1 .4477153 1 1v2c0 .5522847-.44771525 1-1 1z"/><path id="Shape" d="m7 27c-.55228475 0-1-.4477153-1-1v-2c0-.5522847.44771525-1 1-1s1 .4477153 1 1v2c0 .5522847-.44771525 1-1 1z"/><path id="Shape" d="m7 33c-.55228475 0-1-.4477153-1-1v-2c0-.5522847.44771525-1 1-1s1 .4477153 1 1v2c0 .5522847-.44771525 1-1 1z"/><path id="Shape" d="m7 39c-.55228475 0-1-.4477153-1-1v-2c0-.5522847.44771525-1 1-1s1 .4477153 1 1v2c0 .5522847-.44771525 1-1 1z"/><path id="Shape" d="m8 42v2h-2v-2c0-.5522847.44771525-1 1-1s1 .4477153 1 1z"/></g><path id="Shape" d="m46 54h-39.79c-2.62768969.0421177-4.86508915-1.902135-5.19-4.51-.01643773-.162788-.02311634-.3264139-.02-.49 0-2.7614237 2.23857625-5 5-5h40c-1.66 0-3 2.24-3 5s1.34 5 3 5z" fill="#f9eab0"/><path id="Shape" d="m11 49h10v8c.0000756.3602062-.193577.692619-.5069584.8702156-.3133815.1775966-.6980603.1729304-1.0070416-.0122156l-2.972-1.783c-.3164363-.1896131-.7115637-.1896131-1.028 0l-2.972 1.783c-.3089813.185146-.6936601.1898122-1.0070416.0122156-.3133814-.1775966-.507034-.5100094-.5069584-.8702156z" fill="#ff5364"/><path id="Shape" d="m25 50h-17c-.55228475 0-1-.4477153-1-1s.44771525-1 1-1h17c.5522847 0 1 .4477153 1 1s-.4477153 1-1 1z" fill="#fac176"/><path id="Shape" d="m38.885 15.984c-3.3764074-2.0112465-7.2454204-3.0443682-11.175-2.984-7.61 0-14.12 3.97-16.45 9.04-.3950912.9129054-.3094694 1.9626362.2283384 2.7994492.5378079.8368129 1.4571261 1.3507388 2.4516616 1.3705508 1.8273742-.0894613 3.6590047.027951 5.46.35.965588.1859133 1.7711873.8484622 2.14 1.76.20381.9660941-.2411042 1.9529946-1.1 2.44-.9503283.4618905-1.9933709.7012773-3.05.7-.8853723.0506291-1.6305273.6807284-1.827566 1.5453804-.1970386.864652.2015452 1.7553888.977566 2.1846196 3.4343215 1.8442797 7.271804 2.8096625 11.17 2.81 3.5059596.0338775 6.9691037-.7719035 10.1-2.35z" fill="#cf976a"/><ellipse id="Oval" cx="22.5" cy="20.5" fill="#35495e" rx="3.5" ry="2.5"/><circle id="Oval" cx="27.5" cy="31.5" fill="#894b9d" r="2.5"/><path id="Shape" d="m37.6 30.85c-.5902288.9123605-1.7030748 1.337796-2.7514101 1.0518504s-1.7910452-1.2175054-1.8362823-2.3031966c-.0452371-1.0856911.6174029-2.0758072 1.6383169-2.4479715 1.0209141-.3721643 2.1652942-.0407799 2.8293755.8193177z" fill="#f0c419"/><path id="Shape" d="m40 40c-1.118861-.0005682-2.0388195-.8821767-2.087-2l-.913-21h6l-.913 21c-.0471724 1.1182791-.9677265 2.0004584-2.087 2z" fill="#a56a43"/><path id="Shape" d="m43 17c4-7-.2-5.911-.736-12.078-.0307028-.36010053-.2533164-.67561489-.5822795-.82527551-.3289632-.14966061-.7130818-.11017694-1.0047205.10327551-2.984 2.183-9.077 7.4-3.677 12.8z" fill="#f9eab0"/><path id="Shape" d="m43 17-.35 8h-5.3l-.35-8z" fill="#95a5a5"/></g></g></svg>